<svg xmlns="http://www.w3.org/2000/svg" width="369" height="149" fill="none">
  <style>
    .main { fill: #000 }

    @media (prefers-color-scheme: dark) {
      .main { fill: #fff }
    }
  </style>
  <path class="main" d="M3.638 144.56v-34.368h4.56l.528 3.696c.768-1.12 1.824-2.112 3.168-2.976 1.344-.864 3.072-1.296 5.184-1.296 2.304 0 4.336.544 6.096 1.632 1.76 1.088 3.136 2.576 4.128 4.464 1.024 1.888 1.536 4.032 1.536 6.432 0 2.4-.512 4.544-1.536 6.432-.992 1.856-2.368 3.328-4.128 4.416-1.76 1.056-3.808 1.584-6.144 1.584-1.856 0-3.504-.368-4.944-1.104a8.525 8.525 0 0 1-3.36-3.12v14.208H3.638Zm12.528-14.4c2.176 0 3.968-.736 5.376-2.208 1.408-1.504 2.112-3.456 2.112-5.856 0-1.568-.32-2.96-.96-4.176-.64-1.216-1.52-2.16-2.64-2.832-1.12-.704-2.416-1.056-3.888-1.056-2.176 0-3.968.752-5.376 2.256-1.376 1.504-2.064 3.44-2.064 5.808 0 2.4.688 4.352 2.064 5.856 1.408 1.472 3.2 2.208 5.376 2.208ZM34.34 134v-23.808h4.56l.432 4.512c.832-1.568 1.984-2.8 3.456-3.696 1.504-.928 3.312-1.392 5.424-1.392v5.328h-1.392c-1.408 0-2.672.24-3.792.72-1.088.448-1.968 1.232-2.64 2.352-.64 1.088-.96 2.608-.96 4.56V134h-5.088Zm28.714.576c-2.272 0-4.32-.512-6.144-1.536-1.792-1.056-3.216-2.512-4.272-4.368-1.056-1.888-1.584-4.08-1.584-6.576 0-2.496.528-4.672 1.584-6.528 1.088-1.888 2.544-3.344 4.368-4.368 1.824-1.056 3.856-1.584 6.096-1.584 2.272 0 4.304.528 6.096 1.584 1.824 1.024 3.264 2.48 4.32 4.368 1.088 1.856 1.632 4.032 1.632 6.528 0 2.496-.544 4.688-1.632 6.576a11.556 11.556 0 0 1-4.32 4.368c-1.824 1.024-3.872 1.536-6.144 1.536Zm0-4.368a6.462 6.462 0 0 0 3.36-.912c1.056-.608 1.904-1.504 2.544-2.688.64-1.216.96-2.72.96-4.512 0-1.792-.32-3.28-.96-4.464-.608-1.216-1.44-2.128-2.496-2.736a6.462 6.462 0 0 0-3.36-.912 6.717 6.717 0 0 0-3.408.912c-1.024.608-1.856 1.52-2.496 2.736-.64 1.184-.96 2.672-.96 4.464 0 1.792.32 3.296.96 4.512.64 1.184 1.472 2.08 2.496 2.688a6.462 6.462 0 0 0 3.36.912ZM80.653 134V99.44h5.088V134h-5.088Zm14.412-28.32c-.96 0-1.76-.288-2.4-.864-.608-.608-.912-1.36-.912-2.256 0-.896.304-1.632.912-2.208.64-.608 1.44-.912 2.4-.912s1.744.304 2.352.912c.64.576.96 1.312.96 2.208 0 .896-.32 1.648-.96 2.256-.608.576-1.392.864-2.352.864ZM92.52 134v-23.808h5.088V134H92.52Zm11.804 0v-23.808h4.512l.384 4.176a8.18 8.18 0 0 1 3.216-3.456c1.44-.864 3.088-1.296 4.944-1.296 2.88 0 5.136.896 6.768 2.688 1.664 1.792 2.496 4.464 2.496 8.016V134h-5.04v-13.152c0-4.608-1.888-6.912-5.664-6.912-1.888 0-3.456.672-4.704 2.016-1.216 1.344-1.824 3.264-1.824 5.76V134h-5.088Zm28.313 0V99.44h5.088v20.592l9.12-9.84h6.096l-10.128 10.8L154.43 134h-6.432l-10.272-12.192V134h-5.088Zm25.254-11.808v-4.272h19.536v4.272h-19.536Zm36.698 12.384c-2.336 0-4.432-.528-6.288-1.584a11.556 11.556 0 0 1-4.32-4.368c-1.024-1.888-1.536-4.064-1.536-6.528 0-2.464.512-4.624 1.536-6.48 1.056-1.888 2.496-3.36 4.32-4.416 1.856-1.056 3.952-1.584 6.288-1.584 2.944 0 5.408.768 7.392 2.304 2.016 1.536 3.312 3.616 3.888 6.24h-5.328c-.32-1.312-1.024-2.336-2.112-3.072-1.088-.736-2.368-1.104-3.84-1.104-1.248 0-2.4.32-3.456.96-1.056.608-1.904 1.52-2.544 2.736-.64 1.184-.96 2.656-.96 4.416 0 1.76.32 3.248.96 4.464.64 1.184 1.488 2.096 2.544 2.736 1.056.64 2.208.96 3.456.96 1.472 0 2.752-.368 3.84-1.104 1.088-.736 1.792-1.776 2.112-3.12h5.328c-.544 2.56-1.824 4.624-3.84 6.192-2.016 1.568-4.496 2.352-7.44 2.352Zm27.934 0c-2.272 0-4.32-.512-6.144-1.536-1.792-1.056-3.216-2.512-4.272-4.368-1.056-1.888-1.584-4.08-1.584-6.576 0-2.496.528-4.672 1.584-6.528 1.088-1.888 2.544-3.344 4.368-4.368 1.824-1.056 3.856-1.584 6.096-1.584 2.272 0 4.304.528 6.096 1.584 1.824 1.024 3.264 2.48 4.32 4.368 1.088 1.856 1.632 4.032 1.632 6.528 0 2.496-.544 4.688-1.632 6.576a11.556 11.556 0 0 1-4.32 4.368c-1.824 1.024-3.872 1.536-6.144 1.536Zm0-4.368a6.462 6.462 0 0 0 3.36-.912c1.056-.608 1.904-1.504 2.544-2.688.64-1.216.96-2.72.96-4.512 0-1.792-.32-3.28-.96-4.464-.608-1.216-1.44-2.128-2.496-2.736a6.462 6.462 0 0 0-3.36-.912 6.717 6.717 0 0 0-3.408.912c-1.024.608-1.856 1.52-2.496 2.736-.64 1.184-.96 2.672-.96 4.464 0 1.792.32 3.296.96 4.512.64 1.184 1.472 2.08 2.496 2.688a6.462 6.462 0 0 0 3.36.912ZM240.122 134v-23.808h4.512l.384 4.176a8.18 8.18 0 0 1 3.216-3.456c1.44-.864 3.088-1.296 4.944-1.296 2.88 0 5.136.896 6.768 2.688 1.664 1.792 2.496 4.464 2.496 8.016V134h-5.04v-13.152c0-4.608-1.888-6.912-5.664-6.912-1.888 0-3.456.672-4.704 2.016-1.216 1.344-1.824 3.264-1.824 5.76V134h-5.088Zm28.313 0v-23.808h4.512l.384 4.176a8.18 8.18 0 0 1 3.216-3.456c1.44-.864 3.088-1.296 4.944-1.296 2.88 0 5.136.896 6.768 2.688 1.664 1.792 2.496 4.464 2.496 8.016V134h-5.04v-13.152c0-4.608-1.888-6.912-5.664-6.912-1.888 0-3.456.672-4.704 2.016-1.216 1.344-1.824 3.264-1.824 5.76V134h-5.088Zm39.448.576c-2.336 0-4.416-.512-6.24-1.536-1.792-1.056-3.2-2.512-4.224-4.368-1.024-1.856-1.536-4.016-1.536-6.48 0-2.496.496-4.688 1.488-6.576 1.024-1.888 2.432-3.36 4.224-4.416 1.824-1.056 3.936-1.584 6.336-1.584 2.336 0 4.368.528 6.096 1.584 1.728 1.024 3.072 2.4 4.032 4.128.96 1.728 1.44 3.632 1.44 5.712 0 .32-.016.672-.048 1.056 0 .352-.016.752-.048 1.2h-18.528c.16 2.304.912 4.064 2.256 5.28 1.376 1.184 2.96 1.776 4.752 1.776 1.44 0 2.64-.32 3.6-.96a6.06 6.06 0 0 0 2.208-2.688h5.088c-.64 2.24-1.92 4.112-3.84 5.616-1.888 1.504-4.24 2.256-7.056 2.256Zm0-20.784c-1.696 0-3.2.512-4.512 1.536-1.312.992-2.112 2.496-2.4 4.512h13.44c-.096-1.856-.752-3.328-1.968-4.416-1.216-1.088-2.736-1.632-4.56-1.632Zm28.176 20.784c-2.336 0-4.432-.528-6.288-1.584a11.556 11.556 0 0 1-4.32-4.368c-1.024-1.888-1.536-4.064-1.536-6.528 0-2.464.512-4.624 1.536-6.48 1.056-1.888 2.496-3.36 4.32-4.416 1.856-1.056 3.952-1.584 6.288-1.584 2.944 0 5.408.768 7.392 2.304 2.016 1.536 3.312 3.616 3.888 6.24h-5.328c-.32-1.312-1.024-2.336-2.112-3.072-1.088-.736-2.368-1.104-3.84-1.104-1.248 0-2.4.32-3.456.96-1.056.608-1.904 1.52-2.544 2.736-.64 1.184-.96 2.656-.96 4.416 0 1.76.32 3.248.96 4.464.64 1.184 1.488 2.096 2.544 2.736 1.056.64 2.208.96 3.456.96 1.472 0 2.752-.368 3.84-1.104 1.088-.736 1.792-1.776 2.112-3.12h5.328c-.544 2.56-1.824 4.624-3.84 6.192-2.016 1.568-4.496 2.352-7.44 2.352Zm26.313-.576c-2.336 0-4.192-.56-5.568-1.68-1.376-1.152-2.064-3.184-2.064-6.096v-11.76h-4.08v-4.272h4.08l.624-6.048h4.464v6.048h6.72v4.272h-6.72v11.76c0 1.312.272 2.224.816 2.736.576.48 1.552.72 2.928.72h2.736V134h-3.936Z"/>
  <path class="main" fill-rule="evenodd" d="M185.28 74c18.778 0 34-15.222 34-34s-15.222-34-34-34c-18.777 0-34 15.222-34 34s15.223 34 34 34Zm0 6c22.092 0 40-17.909 40-40s-17.908-40-40-40c-22.091 0-40 17.909-40 40s17.909 40 40 40Z" clip-rule="evenodd"/>
  <circle cx="185.28" cy="39.892" r="10.769" fill="#F84B4B"/>
  <path class="main" d="M197.712 14.924a28.32 28.32 0 0 0-.55-.267l-4.264 9.046a20.089 20.089 0 0 1 .709.353l4.649-8.854c-.18-.095-.362-.188-.544-.278ZM200.363 16.427c-.341-.219-.688-.43-1.041-.636l-5.025 8.646c.228.132.451.269.671.41l5.395-8.42ZM196.049 14.162a27.964 27.964 0 0 0-1.135-.448l-3.467 9.38c.245.09.488.186.731.288l3.871-9.22ZM202.361 17.834c-.322-.249-.65-.49-.984-.726l-5.757 8.176c.214.152.425.307.631.466l6.11-7.916ZM193.76 13.316c-.39-.125-.781-.241-1.173-.349l-2.635 9.647c.252.069.503.143.753.223l3.055-9.521ZM204.23 19.412a28.468 28.468 0 0 0-.917-.81l-6.451 7.641c.2.17.396.342.587.519l6.781-7.35ZM191.4 12.671a27.67 27.67 0 0 0-1.199-.244l-1.778 9.84c.257.047.513.1.768.157l2.209-9.753ZM205.953 21.148a27.023 27.023 0 0 0-.842-.887l-7.098 7.045c.185.185.365.375.54.568l7.4-6.726ZM188.993 12.236c-.405-.055-.81-.1-1.216-.138l-.906 9.96c.259.023.519.052.778.087l1.344-9.909ZM207.517 23.028a27.74 27.74 0 0 0-.761-.957l-7.688 6.394c.167.202.33.406.488.614l7.961-6.051ZM186.557 12.014c-.408-.019-.815-.03-1.222-.03l-.031 10c.262 0 .523.007.784.02l.469-9.99ZM208.909 25.036a27.263 27.263 0 0 0-.674-1.019l-8.218 5.697c.149.216.293.434.433.655l8.459-5.333ZM184.113 12.007a28 28 0 0 0-1.22.076l.843 9.964c.261-.021.522-.038.784-.049l-.407-9.991ZM210.12 27.157c-.186-.362-.38-.72-.582-1.073l-8.684 4.959c.13.227.255.458.375.69l8.891-4.576ZM181.679 12.213c-.405.052-.807.112-1.208.182l1.707 9.853a18.1 18.1 0 0 1 .777-.117l-1.276-9.918ZM211.142 29.374a27.2 27.2 0 0 0-.487-1.12l-9.081 4.186c.11.239.214.48.313.722l9.255-3.788ZM179.273 12.63c-.398.086-.793.182-1.187.285l2.555 9.669c.254-.067.509-.129.765-.185l-2.133-9.77ZM211.968 31.67c-.121-.388-.25-.774-.388-1.157l-9.41 3.383c.088.247.172.496.25.746l9.548-2.972ZM176.913 13.253c-.388.12-.774.25-1.157.388l3.383 9.41c.247-.089.496-.172.746-.25l-2.972-9.548ZM212.591 34.03a26.804 26.804 0 0 0-.286-1.187l-9.668 2.555c.067.254.129.508.185.765l9.769-2.133ZM174.617 14.078c-.376.155-.75.317-1.119.487l4.186 9.082c.238-.11.478-.214.721-.314l-3.788-9.255ZM213.008 36.435a28.712 28.712 0 0 0-.182-1.207l-9.853 1.706c.044.259.083.518.117.778l9.918-1.277ZM172.4 15.1a28.7 28.7 0 0 0-1.073.583l4.959 8.683c.228-.13.458-.255.691-.375l-4.577-8.89ZM213.214 38.87a29.099 29.099 0 0 0-.076-1.22l-9.965.843c.022.26.039.522.049.784l9.992-.407ZM170.279 16.311c-.344.217-.683.442-1.019.674l5.698 8.219c.215-.15.433-.294.654-.433l-5.333-8.46ZM213.206 41.314c.02-.408.03-.816.031-1.222l-10-.03c-.001.26-.007.522-.02.783l9.989.469ZM168.271 17.704c-.324.246-.643.5-.957.76l6.395 7.689c.201-.167.406-.33.614-.488l-6.052-7.961ZM212.985 43.75c.054-.406.1-.81.137-1.216l-9.959-.907c-.023.26-.053.52-.088.779l9.91 1.344ZM166.391 19.267c-.301.274-.596.555-.887.843l7.045 7.097c.186-.184.375-.364.568-.54l-6.726-7.4ZM212.55 46.157c.09-.399.171-.799.244-1.199l-9.841-1.778c-.046.256-.099.512-.156.768l9.753 2.209ZM164.655 20.99c-.276.3-.546.605-.809.918l7.64 6.45c.169-.2.342-.395.519-.587l-7.35-6.78ZM211.905 48.517c.125-.39.241-.78.348-1.173l-9.646-2.635c-.069.251-.144.502-.224.752l9.522 3.056ZM163.077 22.86c-.248.321-.49.65-.726.984l8.177 5.757c.151-.215.306-.425.466-.632l-7.917-6.11ZM211.059 50.806c.158-.377.307-.755.448-1.135l-9.38-3.467c-.09.244-.186.488-.288.731l9.22 3.87ZM161.67 24.858c-.218.34-.43.688-.636 1.04l8.646 5.026c.133-.228.269-.452.41-.671l-8.42-5.395ZM210.297 52.468c.091-.182.18-.366.266-.55l-9.045-4.263a17.942 17.942 0 0 1-.353.709l8.854 4.648c.094-.18.187-.361.278-.544ZM160.445 26.965a31.522 31.522 0 0 0-.544 1.094l9.045 4.263a17.942 17.942 0 0 1 .353-.709l-8.854-4.648ZM208.794 55.12c.218-.341.43-.688.636-1.041l-8.646-5.026c-.133.228-.269.452-.41.672l8.42 5.395ZM159.405 29.172c-.158.376-.307.754-.448 1.134l9.38 3.468c.09-.245.186-.489.288-.732l-9.22-3.87ZM207.387 57.118c.248-.322.49-.65.726-.985l-8.177-5.757c-.151.215-.306.426-.466.632l7.917 6.11ZM158.559 31.46c-.125.39-.241.781-.348 1.173l9.646 2.635c.069-.251.144-.502.224-.752l-9.522-3.055ZM205.809 58.987c.276-.3.546-.605.809-.917l-7.64-6.452c-.169.2-.342.396-.519.588l7.35 6.78ZM157.914 33.82c-.09.4-.171.799-.244 1.2l9.841 1.777c.046-.256.098-.512.156-.768l-9.753-2.209ZM204.073 60.71c.301-.274.596-.554.887-.842l-7.045-7.098c-.186.185-.375.364-.568.54l6.726 7.4ZM157.479 36.228c-.055.405-.1.81-.137 1.215l9.959.907c.023-.26.053-.52.088-.779l-9.91-1.343ZM202.193 62.274c.324-.247.643-.5.957-.761l-6.395-7.689c-.201.168-.406.33-.614.488l6.052 7.962ZM157.258 38.663c-.02.408-.03.816-.031 1.223l10 .03c.001-.26.007-.522.02-.784l-9.989-.469ZM200.185 63.666c.344-.217.683-.442 1.019-.674l-5.698-8.219c-.215.15-.433.294-.654.433l5.333 8.46ZM157.25 41.108c.017.407.042.814.076 1.22l9.965-.844c-.022-.26-.039-.522-.049-.783l-9.992.407ZM198.064 64.877c.361-.186.719-.38 1.073-.582l-4.959-8.684c-.228.13-.458.255-.691.375l4.577 8.891ZM157.456 43.542c.052.404.113.807.182 1.208l9.853-1.707a20.216 20.216 0 0 1-.117-.777l-9.918 1.276ZM195.847 65.899c.376-.154.75-.317 1.119-.487l-4.186-9.082c-.238.11-.478.215-.721.314l3.788 9.255ZM157.873 45.948c.086.398.182.793.286 1.186l9.668-2.555a18.181 18.181 0 0 1-.185-.764l-9.769 2.133ZM193.551 66.724c.388-.12.774-.25 1.157-.387l-3.383-9.41c-.247.088-.496.171-.746.25l2.972 9.547ZM158.496 48.307c.121.389.25.774.388 1.157l9.41-3.383a19.363 19.363 0 0 1-.25-.746l-9.548 2.972ZM191.191 67.348c.398-.087.793-.182 1.187-.286l-2.555-9.668c-.254.067-.509.128-.765.184l2.133 9.77ZM159.322 50.604c.154.376.316.75.487 1.119l9.081-4.186c-.11-.238-.214-.479-.313-.721l-9.255 3.788ZM188.785 67.765c.405-.052.807-.113 1.208-.183l-1.707-9.853a18.1 18.1 0 0 1-.777.117l1.276 9.919ZM160.344 52.82c.186.362.38.72.582 1.074l8.684-4.96a18.28 18.28 0 0 1-.375-.69l-8.891 4.576ZM186.351 67.97a28 28 0 0 0 1.22-.076l-.843-9.964c-.261.022-.522.038-.784.049l.407 9.992ZM161.555 54.941c.217.344.441.684.674 1.02l8.218-5.698a19.094 19.094 0 0 1-.433-.655l-8.459 5.333ZM183.907 67.963c.408.02.815.03 1.222.03l.031-10c-.262 0-.523-.007-.784-.019l-.469 9.99ZM162.947 56.95c.246.323.5.642.761.956l7.688-6.394c-.167-.202-.33-.406-.488-.614l-7.961 6.051ZM181.471 67.741c.405.055.81.101 1.216.138l.906-9.959a17.732 17.732 0 0 1-.778-.088l-1.344 9.91ZM164.511 58.83c.273.3.554.596.842.886l.023-.023c-.286-.29-.567-.585-.84-.887l-.025.023ZM167.169 61.354a28.06 28.06 0 0 1-.915-.81l-.02.021c.299.276.605.546.917.81l.018-.02ZM179.064 67.306c.399.09.798.172 1.199.244l1.778-9.84a17.7 17.7 0 0 1-.768-.157l-2.209 9.753ZM176.704 66.662c.39.125.781.24 1.173.348l2.635-9.647a17.595 17.595 0 0 1-.753-.223l-3.055 9.522ZM168.103 62.144c.322.248.65.49.984.726l.012-.017c-.333-.235-.66-.478-.982-.728l-.014.019ZM171.147 64.177a28.025 28.025 0 0 1-1.038-.64l-.008.014c.341.218.688.43 1.041.635l.005-.01ZM174.415 65.816a27.964 27.964 0 0 0 .001-.002l-.001.002ZM172.212 64.77l-.004.006a30.232 30.232 0 0 0 1.094.544l.002-.003a27.388 27.388 0 0 1-1.092-.547ZM121.118 79.363h-3.819c-1.688 0-3.251-.304-4.69-.913-1.411-.58-2.628-1.383-3.652-2.407-.996-1.024-1.785-2.255-2.366-3.694-.553-1.439-.83-3.016-.83-4.731V50.02c0-4.648-2.587-6.973-7.761-6.973V38.4c5.174 0 7.761-2.324 7.761-6.973V13.58c0-1.716.277-3.28.83-4.69.581-1.411 1.37-2.629 2.366-3.653a10.54 10.54 0 0 1 3.652-2.365c1.439-.581 3.002-.872 4.69-.872h3.819v4.607h-3.819c-4.703 0-7.055 2.324-7.055 6.973v17.846c0 .941-.18 1.923-.54 2.947a11.323 11.323 0 0 1-1.494 2.864 9.927 9.927 0 0 1-2.241 2.324 6.694 6.694 0 0 1-2.864 1.204 6.397 6.397 0 0 1 2.822 1.203 9.56 9.56 0 0 1 2.241 2.241c.665.886 1.176 1.84 1.536 2.864.36.996.54 1.979.54 2.947v17.598c0 4.703 2.352 7.055 7.055 7.055h3.819v4.69ZM270.398 43.047c-5.091 0-7.637 2.325-7.637 6.973V67.7c0 1.716-.29 3.28-.871 4.69a10.677 10.677 0 0 1-6.101 6.102c-1.412.58-2.961.871-4.649.871h-3.86v-4.69h3.86c4.621 0 6.931-2.324 6.931-6.972V50.02c0-.968.18-1.965.54-2.988.387-1.052.899-2.02 1.535-2.905a9.222 9.222 0 0 1 2.325-2.2 6.973 6.973 0 0 1 2.863-1.162 8.409 8.409 0 0 1-2.905-1.245 9.585 9.585 0 0 1-2.324-2.283 13.382 13.382 0 0 1-1.494-2.864c-.36-1.024-.54-2.006-.54-2.947V13.58c0-4.649-2.31-6.973-6.931-6.973h-3.86V2h3.86c1.688 0 3.237.304 4.649.913a11.52 11.52 0 0 1 3.693 2.407 10.26 10.26 0 0 1 2.408 3.653c.581 1.41.871 2.946.871 4.607v17.846c0 4.649 2.546 6.973 7.637 6.973v4.648Z"/>
</svg>
